PathFileType  4	(X/Y/Z) C:\Users\antoi\Documents\MyRepositories\mobilecap\ResultsAnalysis
DataRate	CameraRate	NumFrames	NumMarkers	Units	OrigDataRate	OrigDataStartFrame	OrigNumFrames
100.0	100.0	4	51	mm	100.0	57	150
Frame#	Time	r_knee			r_shank_antsup			r_ankle			r_calc			r_5meta			r_toe			L_knee			L_shank_antsup			L_ankle			L_calc			L_5meta			L_toe			r_sh2			r_sh3			r_sh4			L_sh2			L_sh3			r_thigh1			r_thigh2			r_thigh3			r_thigh4			r_thigh5			L_thigh1			L_thigh2			L_thigh3			L_thigh4			r.ASIS			r.PSIS			L.ASIS			L.PSIS			C7			R_Shoulder			L_Shoulder			R_Sternum			L_Sternum			R_humerus			R_elbow_med			R_elbow_lat			R_forearm			R_wrist_radius			R_wrist_ulna			L_humerus			L_elbow_med			L_elbow_lat			L_forearm			L_wrist_radius			L_wrist_ulna			R_HJC			L_HJC			R_HJC_reg			L_HJC_reg			
		X1	Y1	Z1	X2	Y2	Z2	X3	Y3	Z3	X4	Y4	Z4	X5	Y5	Z5	X6	Y6	Z6	X7	Y7	Z7	X8	Y8	Z8	X9	Y9	Z9	X10	Y10	Z10	X11	Y11	Z11	X12	Y12	Z12	X13	Y13	Z13	X14	Y14	Z14	X15	Y15	Z15	X16	Y16	Z16	X17	Y17	Z17	X18	Y18	Z18	X19	Y19	Z19	X20	Y20	Z20	X21	Y21	Z21	X22	Y22	Z22	X23	Y23	Z23	X24	Y24	Z24	X25	Y25	Z25	X26	Y26	Z26	X27	Y27	Z27	X28	Y28	Z28	X29	Y29	Z29	X30	Y30	Z30	X31	Y31	Z31	X32	Y32	Z32	X33	Y33	Z33	X34	Y34	Z34	X35	Y35	Z35	X36	Y36	Z36	X37	Y37	Z37	X38	Y38	Z38	X39	Y39	Z39	X40	Y40	Z40	X41	Y41	Z41	X42	Y42	Z42	X43	Y43	Z43	X44	Y44	Z44	X45	Y45	Z45	X46	Y46	Z46	X47	Y47	Z47	X48	Y48	Z48	X49	Y49	Z49	X50	Y50	Z50	X51	Y51	Z51	

57	0.56000000	345.13267	474.91806	-67.01621	361.45245	417.05335	-79.00520	160.23070	108.77140	-127.56889	94.75160	83.78507	-176.71171	286.61194	33.61329	-85.26240	320.08521	51.59005	-143.64320	648.34678	490.91527	-369.75783	703.93012	423.15591	-382.79573	766.88391	105.96955	-336.58582	727.95190	50.78862	-280.84770	901.38657	93.33596	-362.73527	934.24350	134.57252	-314.96599	318.17263	313.59656	-98.46841	296.76116	435.11148	-41.54298	251.03936	329.36627	-48.01272	615.79651	403.00564	-390.15424	655.29495	286.63110	-384.63214	544.02107	727.37294	-113.45754	509.64283	618.76632	-111.58948	484.05633	603.65297	-52.33007	475.04814	742.81263	-22.74255	444.60169	632.38961	-26.22537	562.46112	800.77372	-388.28051	617.39884	670.08573	-395.87360	458.32905	756.37573	-385.87212	512.37595	630.25521	-375.71078	564.83390	919.16757	-82.02503	375.39061	963.72739	-154.24329	568.56528	915.88883	-320.19281	370.50537	959.39656	-251.42952	447.36713	1427.34830	-229.57604	538.27312	1396.86798	-79.23663	481.52907	1360.24321	-397.07864	553.28023	1323.78913	-223.16859	550.44216	1317.65283	-260.69262	570.43082	1171.18969	22.37905	510.20594	1075.25665	24.45780	558.76058	1085.14841	62.77698	647.25788	970.11349	51.62119	701.94598	883.39840	21.18650	680.74659	870.94150	62.03034	403.04637	1134.00482	-456.05075	338.71899	1052.89091	-396.14431	350.02062	1048.80425	-453.13018	369.11932	906.49003	-476.86451	381.84031	796.99761	-462.37283	340.61552	800.31916	-476.10942	488.76224	841.12491	-116.36221	475.93043	848.79087	-306.44687	494.82304	856.14320	-108.64523	486.93722	849.15064	-265.52824	
58	0.57000000	353.74952	473.75141	-67.41830	368.95829	415.41918	-79.12997	161.74719	110.51926	-127.18767	95.77148	86.90364	-176.04633	287.02601	33.84389	-84.94210	320.12831	50.94211	-143.35369	662.10423	489.56362	-368.59532	716.61781	420.48034	-381.60497	772.22682	102.60448	-335.23649	731.70093	50.12636	-279.53739	906.10241	86.19485	-361.52572	940.54791	126.28216	-313.64613	323.53936	312.88983	-98.28986	304.56978	435.01894	-42.08798	256.71747	330.22808	-48.10951	627.89067	402.07068	-388.92689	664.79459	284.88098	-383.05728	555.05021	724.42002	-113.47354	519.73347	616.17393	-111.55715	493.74217	601.32334	-52.49959	485.65170	740.51481	-23.23717	454.24511	630.30213	-26.68718	576.05585	799.47727	-388.99110	631.26248	668.81679	-395.63324	471.78434	754.84718	-386.29109	526.05961	628.83299	-375.35654	577.27366	916.76289	-82.16430	388.33906	961.85239	-154.85764	582.23837	913.82810	-320.55015	383.78210	957.80995	-252.02377	458.41019	1425.09764	-232.87066	550.72417	1396.16525	-82.84908	491.37537	1356.76093	-400.14327	564.41834	1322.03531	-226.52759	561.59607	1315.71433	-263.80792	581.93502	1170.79298	20.23233	521.17582	1075.20758	22.88461	569.84373	1085.04572	61.09081	657.54342	969.35295	50.39020	711.57673	882.15512	20.33038	690.41926	870.03057	61.26253	412.92293	1129.97404	-456.86461	349.54025	1049.10372	-395.75505	359.84487	1044.92655	-452.66484	378.27303	902.43912	-476.42089	390.86271	792.92703	-461.75061	349.43922	796.41442	-474.81934	501.29956	838.92331	-116.91923	489.16364	847.00325	-307.03427	507.41759	853.71940	-109.23371	500.05232	847.18624	-266.31933	
59	0.58000000	362.97294	472.52092	-67.92178	377.03575	413.67540	-79.30156	163.44917	112.66780	-126.56614	97.00807	90.45553	-175.27819	287.35099	33.90034	-84.68397	320.21259	50.30893	-143.04401	675.41813	488.12561	-367.56276	729.02223	417.85759	-380.37185	777.41341	99.53400	-333.90360	734.79458	50.22810	-278.47981	910.54785	78.72213	-359.67395	946.46383	117.42188	-311.46120	329.32269	312.15190	-98.14103	312.93438	435.01089	-42.70843	262.87118	331.22105	-48.27779	639.79715	401.11576	-387.93581	674.20277	283.19896	-381.61034	566.47101	721.53294	-113.58539	530.43702	613.60025	-111.60318	503.90967	599.02206	-52.74831	496.62900	738.28145	-23.84191	464.31556	628.20724	-27.27544	590.02853	798.20579	-389.71798	645.06143	667.40325	-395.48524	485.44059	753.66535	-386.91561	539.51718	627.57869	-375.27910	589.99738	914.42442	-82.37544	401.49168	959.95651	-155.51517	596.14016	911.92496	-320.97765	397.28455	956.36177	-252.63032	469.52012	1422.92741	-236.21697	563.34317	1395.55164	-86.54928	501.33042	1353.31798	-403.25176	575.64518	1320.36661	-229.94905	572.76805	1313.86868	-266.93189	593.40501	1170.46317	18.10499	531.99754	1075.28478	21.25037	580.79246	1084.99616	59.34928	667.54731	968.54341	49.09175	720.78455	880.79885	19.38375	699.69654	869.05176	60.40586	422.94232	1125.97998	-457.70691	360.59542	1045.32786	-395.38453	369.84281	1041.10468	-452.30412	387.58637	898.42423	-476.06225	400.08471	788.89601	-461.26049	358.32493	792.58914	-473.54704	514.11491	836.76664	-117.58515	502.64834	845.36141	-307.72165	520.32098	851.17148	-110.01419	513.50994	845.35689	-267.30834	
60	0.59000000	372.87131	471.24022	-68.50563	385.76104	411.82250	-79.51323	165.37715	115.28533	-125.67145	98.54488	94.51805	-174.38115	287.54383	33.72254	-84.49114	320.43941	49.72656	-142.70759	688.25119	486.70728	-366.77335	741.18196	415.46072	-379.19060	782.63341	96.91561	-332.70156	737.57815	51.01923	-277.69811	914.87791	71.24272	-357.46788	952.13577	108.35535	-308.74602	335.59500	311.40641	-98.01061	321.94074	435.08791	-43.32998	269.57088	332.37011	-48.50091	651.62546	400.21607	-387.33245	683.76356	281.71127	-380.47046	578.30810	718.77117	-113.80948	541.75167	611.08756	-111.73046	514.63883	596.78843	-53.06968	508.00554	736.14492	-24.56524	474.87547	626.13444	-27.97843	604.37124	797.10713	-390.36389	658.78855	665.99350	-395.41244	499.34075	752.99248	-387.84219	552.78529	626.64338	-375.65849	602.99774	912.18292	-82.66386	414.81041	958.08155	-156.16735	610.18185	910.26694	-321.46007	410.95443	955.12729	-253.20654	480.70279	1420.88509	-239.61125	576.14199	1395.04635	-90.34511	511.40488	1349.93656	-406.39920	587.04171	1318.81511	-233.43263	583.92978	1312.09539	-270.08889	604.85970	1170.23265	15.97829	542.67011	1075.52383	19.56323	591.61499	1085.03278	57.55043	677.27364	967.71871	47.73006	729.59247	879.36985	18.35255	708.57129	868.04935	59.47149	433.12835	1122.03992	-458.58212	371.87746	1041.58409	-395.05821	380.03470	1037.36057	-452.08113	397.07768	894.45769	-475.79128	409.53572	784.92940	-460.89568	367.31908	788.86151	-472.31563	527.18037	834.69470	-118.36233	516.31221	843.94934	-308.50520	533.51200	848.52892	-111.00116	527.25735	843.74758	-268.48911	
